<?xml version="1.0" encoding="utf-8"?>
<!-- Generator: Adobe Illustrator 21.1.0, SVG Export Plug-In . SVG Version: 6.00 Build 0)  -->
<svg version="1.1" id="Layer_1" xmlns="http://www.w3.org/2000/svg" xmlns:xlink="http://www.w3.org/1999/xlink" x="0px" y="0px"
	 viewBox="0 0 242 64" style="enable-background:new 0 0 242 64;" xml:space="preserve">
<style type="text/css">
	.st0{fill:#FFFFFF;}
	.st1{fill:#2FC4F2;}
</style>
<g>
	<path class="st0" d="M201.1,11.2h-3.3c-1.4,0-2.1,0.8-2.1,2.1v3.3c0,1.4,0.7,2.1,2.1,2.1h3.3c1.4,0,2.1-0.7,2.1-2.1v-3.3
		C203.2,11.9,202.6,11.2,201.1,11.2z"/>
	<rect x="195.9" y="23.9" class="st0" width="7.2" height="29.2"/>
	<path class="st0" d="M230.6,23c-4.3,0-8.5,2-12.6,5.2l-0.5-4.3h-6.1V53h7.3l-0.1-20.3c4.1-2.3,6.7-3.6,9.7-3.6
		c2.3,0,3.1,0.9,3.1,4.2V53h7.3V31.1C238.7,25.9,235.8,23,230.6,23z"/>
	<path class="st0" d="M93.9,33.1c0-6.6-3.8-10.1-13.3-10.1c-9.9,0-14.1,3.8-14.1,15.4c0,11.1,4,15.4,14.6,15.4c3.7,0,8.9-0.5,12-2
		l-0.7-4.6c-3.5,0.4-7.7,0.7-10.5,0.7c-5,0-7.2-1.1-7.8-6.4H86C91.5,41.5,93.9,38.4,93.9,33.1z M84.1,36.4H74
		c0.2-6.1,1.8-7.7,6.9-7.7c4.5,0,5.8,1.2,5.8,4.3C86.7,34.6,86.4,36.4,84.1,36.4z"/>
	<path class="st0" d="M122.6,31.8v-0.2c5-0.5,7-3.5,7-9.4c0-8.5-3.7-10.7-14.1-10.7c-6.6,0-10.1,0.1-14.5,0.5v41
		c4.9,0.4,8.9,0.5,16.4,0.5c9.6,0,13.5-2.3,13.5-10.7C130.8,36.2,128.8,32.4,122.6,31.8z M108.3,17.5h6.9c5.5,0,7.3,1.1,7.3,5.7
		c0,4.7-1.7,5.9-6.7,5.9h-7.4V17.5H108.3z M116.1,47.5l-7.8-0.1v-13h7.6c5.7,0.1,7.5,1.5,7.5,7C123.4,46.4,121.7,47.5,116.1,47.5z"
		/>
	<path class="st0" d="M144.2,28.1l-0.7-4.3h-5.7V53h7.3V32.4c4.2-1.6,6.9-2.6,9.6-2.6h2.1l0.8-6.8h-1.4
		C152.4,23,148.2,24.9,144.2,28.1z"/>
	<path class="st0" d="M176.8,23c-3.9,0-10.4,0.7-14.6,1.4l0.7,5.1c4.6-0.4,9.5-0.6,12.2-0.6c4.2,0,5.3,0.8,5.4,4.2v1.8h-11
		c-5.5,0-8.6,2.7-8.6,7.3v3c0,5.5,3.9,8.5,9.2,8.5c5.2,0,9.1-2.8,11.1-5.1L182,53h5.7V33.2C187.8,25.4,184,23,176.8,23z M180.5,44.4
		c-3,2.5-6.3,3.5-8.6,3.5c-2.6,0-3.8-1.1-3.8-3.6v-1.1c0-2,0.7-3.2,3.1-3.3h9.3V44.4z"/>
</g>
<g>
	<path class="st1" d="M35.5,41.9H37h0.5h1h0.7h0.6h0.1h0.5h0.5c2.6,0,4.7-2.1,4.7-4.7v-9.6c0-2.6-2.1-4.7-4.7-4.7h-0.6
		c-0.1,0-0.2,0-0.4,0h-0.1c0.1,0,0.2,0,0.4,0l0,0h-8.9h-0.1h-0.8c-2.5,0-4.6-2.1-4.7-4.6l0,0l0,0l0,0V8.8V8.7l0,0l0,0V5.6
		c0-2.6-2.1-4.7-4.7-4.7H8C5.4,0.9,3.3,3,3.3,5.6v12.8C3.3,20.9,5.4,23,8,23h3.2h0.6H12h8.3h0.5h0.1c0.1,0,0.3,0,0.4,0h0.6
		c2.6,0,4.7,2.1,4.7,4.7v9.6c0,2.6-2.1,4.7-4.7,4.7h-1h-0.1l0,0h-8.4h-0.1h-1H8c-2.6,0-4.7,2.1-4.7,4.7v12.8C3.3,61.9,5.4,64,8,64
		h12.8c2.6,0,4.7-2.1,4.7-4.7v-2v-1.2l0,0v-9.6c0-2.2,1.5-4,3.5-4.5l0,0c0.2-0.1,0.4-0.1,0.6-0.1l0,0c0.1,0,0.1,0,0.2,0l0,0
		c0.2,0,0.3,0,0.3,0h0.6h0.5H33h1.9H35.5z"/>
	<path class="st1" d="M42.5,0.9h-5.9c-1.7,0-3,1.4-3,3v5.9c0,1.7,1.4,3,3,3h5.9c1.7,0,3-1.4,3-3V3.9C45.6,2.3,44.2,0.9,42.5,0.9z"/>
	<path class="st1" d="M42.5,52.1h-5.9c-1.7,0-3,1.4-3,3V61c0,1.7,1.4,3,3,3h5.9c1.7,0,3-1.4,3-3v-5.9C45.6,53.5,44.2,52.1,42.5,52.1
		z"/>
</g>
</svg>
