<?xml version="1.0" encoding="utf-8"?>
<!-- Generator: Adobe Illustrator 21.1.0, SVG Export Plug-In . SVG Version: 6.00 Build 0)  -->
<svg version="1.1" id="Layer_1" xmlns="http://www.w3.org/2000/svg" xmlns:xlink="http://www.w3.org/1999/xlink" x="0px" y="0px"
	 viewBox="0 0 60 60" style="enable-background:new 0 0 60 60;" xml:space="preserve">
<style type="text/css">
	.st0{fill:#31C0F0;}
</style>
<g>
	<path id="Facebook" class="st0" d="M23.6,15.1c0,1.2,0,6.6,0,6.6h-4.9v8.2h4.9V54h10V29.9h6.7c0,0,0.6-3.9,0.9-8.1
		c-0.9,0-7.6,0-7.6,0s0-4.7,0-5.5c0-0.8,1.1-1.9,2.2-1.9c1.1,0,3.3,0,5.4,0c0-1.1,0-4.9,0-8.4c-2.8,0-6,0-7.4,0
		C23.4,5.8,23.6,13.9,23.6,15.1z"/>
</g>
</svg>
