<?xml version="1.0" encoding="utf-8"?>
<!-- Generator: Adobe Illustrator 21.1.0, SVG Export Plug-In . SVG Version: 6.00 Build 0)  -->
<svg version="1.1" id="Layer_1" xmlns="http://www.w3.org/2000/svg" xmlns:xlink="http://www.w3.org/1999/xlink" x="0px" y="0px"
	 viewBox="0 0 60 60" style="enable-background:new 0 0 60 60;" xml:space="preserve">
<style type="text/css">
	.st0{fill:#31C0F0;}
</style>
<g>
	<g>
		<path class="st0" d="M45.6,36.7c-2.9,0-5.4,1.4-7.1,3.5l-15.4-7.9c0.2-0.7,0.3-1.5,0.3-2.3c0-0.9-0.2-1.7-0.4-2.5l15.3-7.8
			c1.6,2.2,4.2,3.6,7.2,3.6c5,0,9-4,9-9s-4-9-9-9s-9,4-9,9c0,0.8,0.1,1.6,0.3,2.3l-15.4,7.9c-1.7-2.1-4.2-3.5-7.1-3.5c-5,0-9,4-9,9
			s4,9,9,9c3,0,5.6-1.4,7.2-3.6l15.3,7.8c-0.2,0.8-0.4,1.7-0.4,2.5c0,5,4,9,9,9s9-4,9-9C54.6,40.8,50.6,36.7,45.6,36.7z"/>
	</g>
</g>
</svg>
