<?xml version="1.0" encoding="utf-8"?>
<!-- Generator: Adobe Illustrator 21.1.0, SVG Export Plug-In . SVG Version: 6.00 Build 0)  -->
<svg version="1.1" id="Layer_1" xmlns="http://www.w3.org/2000/svg" xmlns:xlink="http://www.w3.org/1999/xlink" x="0px" y="0px"
	 viewBox="0 0 60 60" style="enable-background:new 0 0 60 60;" xml:space="preserve">
<style type="text/css">
	.st0{fill:#31C0F0;}
</style>
<g id="XMLID_822_">
	<path id="XMLID_823_" class="st0" d="M55.6,13.8c-2-2.4-5.7-3.4-12.8-3.4H17.2c-7.2,0-11,1-13,3.6c-1.9,2.5-1.9,6.1-1.9,11.2v9.6
		c0,9.8,2.3,14.7,14.9,14.7h25.7c6.1,0,9.5-0.9,11.7-3c2.3-2.2,3.2-5.7,3.2-11.8v-9.6C57.8,19.9,57.6,16.2,55.6,13.8z M37.9,31.3
		l-11.7,6.1c-0.3,0.1-0.5,0.2-0.8,0.2s-0.6-0.1-0.9-0.3c-0.5-0.3-0.9-0.9-0.9-1.5V23.7c0-0.6,0.3-1.2,0.9-1.5
		c0.5-0.3,1.2-0.3,1.8-0.1L38,28.2c0.6,0.3,1,0.9,1,1.6C38.8,30.4,38.5,31,37.9,31.3z"/>
</g>
</svg>
